<mxfile host="app.diagrams.net" modified="2023-11-13T10:34:30.754Z" agent="Mozilla/5.0 (Macintosh; Intel Mac OS X 10_15_7) AppleWebKit/537.36 (KHTML, like Gecko) Chrome/119.0.0.0 Safari/537.36" etag="SlX7ZMPeJI92a3Z26iBx" version="22.1.0" type="device">
  <diagram name="Page-1" id="ehSt8R9H32do8KLfPBsX">
    <mxGraphModel dx="1288" dy="612" grid="1" gridSize="10" guides="1" tooltips="1" connect="1" arrows="1" fold="1" page="1" pageScale="1" pageWidth="827" pageHeight="1169" math="0" shadow="0">
      <root>
        <mxCell id="0" />
        <mxCell id="1" parent="0" />
        <mxCell id="CVNf-LmkE8wl2xfzt6kp-32" style="edgeStyle=none;shape=connector;rounded=0;orthogonalLoop=1;jettySize=auto;html=1;exitX=0.5;exitY=1;exitDx=0;exitDy=0;entryX=1;entryY=0.5;entryDx=0;entryDy=0;labelBackgroundColor=default;strokeColor=default;align=center;verticalAlign=middle;fontFamily=Helvetica;fontSize=11;fontColor=default;endArrow=none;endFill=0;" edge="1" parent="1" source="CVNf-LmkE8wl2xfzt6kp-1" target="CVNf-LmkE8wl2xfzt6kp-31">
          <mxGeometry relative="1" as="geometry" />
        </mxCell>
        <mxCell id="CVNf-LmkE8wl2xfzt6kp-1" value="Account" style="swimlane;childLayout=stackLayout;horizontal=1;startSize=50;horizontalStack=0;rounded=1;fontSize=14;fontStyle=0;strokeWidth=2;resizeParent=0;resizeLast=1;shadow=0;dashed=0;align=center;arcSize=4;whiteSpace=wrap;html=1;" vertex="1" parent="1">
          <mxGeometry x="350" y="230" width="160" height="140" as="geometry">
            <mxRectangle x="350" y="230" width="90" height="50" as="alternateBounds" />
          </mxGeometry>
        </mxCell>
        <mxCell id="CVNf-LmkE8wl2xfzt6kp-2" value="+id&lt;br&gt;+name&lt;br&gt;+user&lt;br&gt;+category?&lt;br&gt;+FiendAccount?&lt;br&gt;" style="align=left;strokeColor=none;fillColor=none;spacingLeft=4;fontSize=12;verticalAlign=top;resizable=0;rotatable=0;part=1;html=1;" vertex="1" parent="CVNf-LmkE8wl2xfzt6kp-1">
          <mxGeometry y="50" width="160" height="90" as="geometry" />
        </mxCell>
        <mxCell id="CVNf-LmkE8wl2xfzt6kp-4" style="edgeStyle=orthogonalEdgeStyle;rounded=0;orthogonalLoop=1;jettySize=auto;html=1;exitX=0.5;exitY=1;exitDx=0;exitDy=0;" edge="1" parent="CVNf-LmkE8wl2xfzt6kp-1" source="CVNf-LmkE8wl2xfzt6kp-2" target="CVNf-LmkE8wl2xfzt6kp-2">
          <mxGeometry relative="1" as="geometry" />
        </mxCell>
        <mxCell id="CVNf-LmkE8wl2xfzt6kp-5" value="User&lt;span style=&quot;white-space: pre;&quot;&gt;&#x9;&lt;/span&gt;" style="swimlane;childLayout=stackLayout;horizontal=1;startSize=50;horizontalStack=0;rounded=1;fontSize=14;fontStyle=0;strokeWidth=2;resizeParent=0;resizeLast=1;shadow=0;dashed=0;align=center;arcSize=4;whiteSpace=wrap;html=1;" vertex="1" parent="1">
          <mxGeometry x="650" y="230" width="160" height="120" as="geometry" />
        </mxCell>
        <mxCell id="CVNf-LmkE8wl2xfzt6kp-6" value="+id&lt;br&gt;+email&lt;br&gt;+passwordHash&lt;br&gt;" style="align=left;strokeColor=none;fillColor=none;spacingLeft=4;fontSize=12;verticalAlign=top;resizable=0;rotatable=0;part=1;html=1;" vertex="1" parent="CVNf-LmkE8wl2xfzt6kp-5">
          <mxGeometry y="50" width="160" height="70" as="geometry" />
        </mxCell>
        <mxCell id="CVNf-LmkE8wl2xfzt6kp-8" value="" style="edgeStyle=entityRelationEdgeStyle;fontSize=12;html=1;endArrow=ERoneToMany;rounded=0;exitX=0;exitY=0;exitDx=0;exitDy=0;entryX=1;entryY=0;entryDx=0;entryDy=0;" edge="1" parent="1" source="CVNf-LmkE8wl2xfzt6kp-6" target="CVNf-LmkE8wl2xfzt6kp-2">
          <mxGeometry width="100" height="100" relative="1" as="geometry">
            <mxPoint x="440" y="620" as="sourcePoint" />
            <mxPoint x="540" y="520" as="targetPoint" />
            <Array as="points">
              <mxPoint x="650" y="280" />
            </Array>
          </mxGeometry>
        </mxCell>
        <mxCell id="CVNf-LmkE8wl2xfzt6kp-9" value="Category" style="swimlane;childLayout=stackLayout;horizontal=1;startSize=50;horizontalStack=0;rounded=1;fontSize=14;fontStyle=0;strokeWidth=2;resizeParent=0;resizeLast=1;shadow=0;dashed=0;align=center;arcSize=4;whiteSpace=wrap;html=1;" vertex="1" parent="1">
          <mxGeometry x="60" y="470" width="160" height="120" as="geometry" />
        </mxCell>
        <mxCell id="CVNf-LmkE8wl2xfzt6kp-10" value="+color&lt;br&gt;+budget" style="align=left;strokeColor=none;fillColor=none;spacingLeft=4;fontSize=12;verticalAlign=top;resizable=0;rotatable=0;part=1;html=1;" vertex="1" parent="CVNf-LmkE8wl2xfzt6kp-9">
          <mxGeometry y="50" width="160" height="70" as="geometry" />
        </mxCell>
        <mxCell id="CVNf-LmkE8wl2xfzt6kp-14" style="edgeStyle=none;shape=connector;rounded=0;orthogonalLoop=1;jettySize=auto;html=1;exitX=0;exitY=0.5;exitDx=0;exitDy=0;entryX=1;entryY=0;entryDx=0;entryDy=0;labelBackgroundColor=default;strokeColor=default;align=center;verticalAlign=middle;fontFamily=Helvetica;fontSize=11;fontColor=default;endArrow=none;endFill=0;" edge="1" parent="1" source="CVNf-LmkE8wl2xfzt6kp-11" target="CVNf-LmkE8wl2xfzt6kp-9">
          <mxGeometry relative="1" as="geometry" />
        </mxCell>
        <mxCell id="CVNf-LmkE8wl2xfzt6kp-11" value="is a" style="shape=rhombus;double=1;perimeter=rhombusPerimeter;whiteSpace=wrap;html=1;align=center;rotation=-30;" vertex="1" parent="1">
          <mxGeometry x="220" y="390" width="120" height="60" as="geometry" />
        </mxCell>
        <mxCell id="CVNf-LmkE8wl2xfzt6kp-13" style="rounded=0;orthogonalLoop=1;html=1;exitX=0;exitY=1;exitDx=0;exitDy=0;entryX=1;entryY=0.5;entryDx=0;entryDy=0;endArrow=none;endFill=0;" edge="1" parent="1" source="CVNf-LmkE8wl2xfzt6kp-2" target="CVNf-LmkE8wl2xfzt6kp-11">
          <mxGeometry relative="1" as="geometry">
            <Array as="points" />
          </mxGeometry>
        </mxCell>
        <mxCell id="CVNf-LmkE8wl2xfzt6kp-15" value="RecurringTransaction" style="swimlane;childLayout=stackLayout;horizontal=1;startSize=50;horizontalStack=0;rounded=1;fontSize=14;fontStyle=0;strokeWidth=2;resizeParent=0;resizeLast=1;shadow=0;dashed=0;align=center;arcSize=4;whiteSpace=wrap;html=1;fontFamily=Helvetica;fontColor=default;" vertex="1" parent="1">
          <mxGeometry x="60" y="230" width="160" height="160" as="geometry" />
        </mxCell>
        <mxCell id="CVNf-LmkE8wl2xfzt6kp-16" value="+id&lt;br&gt;+amount&lt;br&gt;+startDate&lt;br&gt;+endDate&lt;br&gt;+interval&lt;br&gt;+activeAccount&lt;br&gt;+passiveAccount" style="align=left;strokeColor=none;fillColor=none;spacingLeft=4;fontSize=12;verticalAlign=top;resizable=0;rotatable=0;part=1;html=1;fontFamily=Helvetica;fontColor=default;" vertex="1" parent="CVNf-LmkE8wl2xfzt6kp-15">
          <mxGeometry y="50" width="160" height="110" as="geometry" />
        </mxCell>
        <mxCell id="CVNf-LmkE8wl2xfzt6kp-17" value="" style="edgeStyle=entityRelationEdgeStyle;fontSize=12;html=1;endArrow=ERone;endFill=1;rounded=0;labelBackgroundColor=default;strokeColor=default;align=center;verticalAlign=middle;fontFamily=Helvetica;fontColor=default;shape=connector;exitX=1;exitY=0;exitDx=0;exitDy=0;" edge="1" parent="1" source="CVNf-LmkE8wl2xfzt6kp-16">
          <mxGeometry width="100" height="100" relative="1" as="geometry">
            <mxPoint x="110" y="320" as="sourcePoint" />
            <mxPoint x="350" y="276" as="targetPoint" />
          </mxGeometry>
        </mxCell>
        <mxCell id="CVNf-LmkE8wl2xfzt6kp-18" value="" style="edgeStyle=entityRelationEdgeStyle;fontSize=12;html=1;endArrow=ERone;endFill=1;rounded=0;labelBackgroundColor=default;strokeColor=default;align=center;verticalAlign=middle;fontFamily=Helvetica;fontColor=default;shape=connector;exitX=1;exitY=0.25;exitDx=0;exitDy=0;entryX=0;entryY=0.25;entryDx=0;entryDy=0;" edge="1" parent="1" source="CVNf-LmkE8wl2xfzt6kp-16" target="CVNf-LmkE8wl2xfzt6kp-2">
          <mxGeometry width="100" height="100" relative="1" as="geometry">
            <mxPoint x="100" y="400" as="sourcePoint" />
            <mxPoint x="200" y="300" as="targetPoint" />
          </mxGeometry>
        </mxCell>
        <mxCell id="CVNf-LmkE8wl2xfzt6kp-19" value="FriendAccount&lt;span style=&quot;white-space: pre;&quot;&gt;&#x9;&lt;/span&gt;" style="swimlane;childLayout=stackLayout;horizontal=1;startSize=50;horizontalStack=0;rounded=1;fontSize=14;fontStyle=0;strokeWidth=2;resizeParent=0;resizeLast=1;shadow=0;dashed=0;align=center;arcSize=4;whiteSpace=wrap;html=1;" vertex="1" parent="1">
          <mxGeometry x="350" y="470" width="160" height="120" as="geometry" />
        </mxCell>
        <mxCell id="CVNf-LmkE8wl2xfzt6kp-20" value="+nickName&lt;br&gt;+fiendship" style="align=left;strokeColor=none;fillColor=none;spacingLeft=4;fontSize=12;verticalAlign=top;resizable=0;rotatable=0;part=1;html=1;" vertex="1" parent="CVNf-LmkE8wl2xfzt6kp-19">
          <mxGeometry y="50" width="160" height="70" as="geometry" />
        </mxCell>
        <mxCell id="CVNf-LmkE8wl2xfzt6kp-21" value="Friendship" style="swimlane;childLayout=stackLayout;horizontal=1;startSize=50;horizontalStack=0;rounded=1;fontSize=14;fontStyle=0;strokeWidth=2;resizeParent=0;resizeLast=1;shadow=0;dashed=0;align=center;arcSize=4;whiteSpace=wrap;html=1;" vertex="1" parent="1">
          <mxGeometry x="640" y="470" width="160" height="120" as="geometry" />
        </mxCell>
        <mxCell id="CVNf-LmkE8wl2xfzt6kp-22" value="+user1&lt;br&gt;+user2" style="align=left;strokeColor=none;fillColor=none;spacingLeft=4;fontSize=12;verticalAlign=top;resizable=0;rotatable=0;part=1;html=1;" vertex="1" parent="CVNf-LmkE8wl2xfzt6kp-21">
          <mxGeometry y="50" width="160" height="70" as="geometry" />
        </mxCell>
        <mxCell id="CVNf-LmkE8wl2xfzt6kp-25" value="" style="edgeStyle=entityRelationEdgeStyle;fontSize=12;html=1;endArrow=ERzeroToOne;startArrow=ERmandOne;rounded=0;labelBackgroundColor=default;strokeColor=default;align=center;verticalAlign=middle;fontFamily=Helvetica;fontColor=default;shape=connector;exitX=1;exitY=0.25;exitDx=0;exitDy=0;" edge="1" parent="1" source="CVNf-LmkE8wl2xfzt6kp-21">
          <mxGeometry width="100" height="100" relative="1" as="geometry">
            <mxPoint x="860" y="480" as="sourcePoint" />
            <mxPoint x="650" y="320" as="targetPoint" />
            <Array as="points">
              <mxPoint x="770" y="430" />
            </Array>
          </mxGeometry>
        </mxCell>
        <mxCell id="CVNf-LmkE8wl2xfzt6kp-28" value="" style="edgeStyle=elbowEdgeStyle;fontSize=12;html=1;endArrow=ERmandOne;startArrow=ERmandOne;rounded=0;labelBackgroundColor=default;strokeColor=default;align=center;verticalAlign=middle;fontFamily=Helvetica;fontColor=default;shape=connector;exitX=1;exitY=0.5;exitDx=0;exitDy=0;entryX=1;entryY=0.75;entryDx=0;entryDy=0;" edge="1" parent="1" source="CVNf-LmkE8wl2xfzt6kp-21" target="CVNf-LmkE8wl2xfzt6kp-5">
          <mxGeometry width="100" height="100" relative="1" as="geometry">
            <mxPoint x="330" y="440" as="sourcePoint" />
            <mxPoint x="430" y="340" as="targetPoint" />
            <Array as="points">
              <mxPoint x="870" y="420" />
            </Array>
          </mxGeometry>
        </mxCell>
        <mxCell id="CVNf-LmkE8wl2xfzt6kp-29" value="Friendships are one-directional. So user1 is the origin and cannot be null. If the other user has no account, user2 is null." style="shape=note;size=20;whiteSpace=wrap;html=1;fontFamily=Helvetica;fontSize=11;fontColor=default;" vertex="1" parent="1">
          <mxGeometry x="900" y="290" width="140" height="130" as="geometry" />
        </mxCell>
        <mxCell id="CVNf-LmkE8wl2xfzt6kp-30" value="" style="edgeStyle=entityRelationEdgeStyle;fontSize=12;html=1;endArrow=ERmandOne;startArrow=ERmandOne;rounded=0;labelBackgroundColor=default;strokeColor=default;align=center;verticalAlign=middle;fontFamily=Helvetica;fontColor=default;shape=connector;entryX=0;entryY=0;entryDx=0;entryDy=0;exitX=1;exitY=0;exitDx=0;exitDy=0;" edge="1" parent="1" source="CVNf-LmkE8wl2xfzt6kp-20" target="CVNf-LmkE8wl2xfzt6kp-22">
          <mxGeometry width="100" height="100" relative="1" as="geometry">
            <mxPoint x="340" y="700" as="sourcePoint" />
            <mxPoint x="440" y="600" as="targetPoint" />
          </mxGeometry>
        </mxCell>
        <mxCell id="CVNf-LmkE8wl2xfzt6kp-31" value="is a" style="shape=rhombus;double=1;perimeter=rhombusPerimeter;whiteSpace=wrap;html=1;align=center;rotation=-90;" vertex="1" parent="1">
          <mxGeometry x="385" y="400" width="90" height="40" as="geometry" />
        </mxCell>
        <mxCell id="CVNf-LmkE8wl2xfzt6kp-33" style="edgeStyle=none;shape=connector;rounded=0;orthogonalLoop=1;jettySize=auto;html=1;exitX=0;exitY=0.5;exitDx=0;exitDy=0;entryX=-0.068;entryY=0.51;entryDx=0;entryDy=0;entryPerimeter=0;labelBackgroundColor=default;strokeColor=default;align=center;verticalAlign=middle;fontFamily=Helvetica;fontSize=11;fontColor=default;endArrow=none;endFill=0;" edge="1" parent="1" source="CVNf-LmkE8wl2xfzt6kp-31" target="CVNf-LmkE8wl2xfzt6kp-31">
          <mxGeometry relative="1" as="geometry" />
        </mxCell>
        <mxCell id="CVNf-LmkE8wl2xfzt6kp-34" value="Booking" style="swimlane;childLayout=stackLayout;horizontal=1;startSize=50;horizontalStack=0;rounded=1;fontSize=14;fontStyle=0;strokeWidth=2;resizeParent=0;resizeLast=1;shadow=0;dashed=0;align=center;arcSize=4;whiteSpace=wrap;html=1;fontFamily=Helvetica;fontColor=default;" vertex="1" parent="1">
          <mxGeometry x="60" y="50" width="160" height="160" as="geometry" />
        </mxCell>
        <mxCell id="CVNf-LmkE8wl2xfzt6kp-35" value="+id&lt;br&gt;+activeAccount&lt;br&gt;+passiveAccount&lt;br&gt;+timestamp&lt;br&gt;+amount" style="align=left;strokeColor=none;fillColor=none;spacingLeft=4;fontSize=12;verticalAlign=top;resizable=0;rotatable=0;part=1;html=1;fontFamily=Helvetica;fontColor=default;" vertex="1" parent="CVNf-LmkE8wl2xfzt6kp-34">
          <mxGeometry y="50" width="160" height="110" as="geometry" />
        </mxCell>
        <mxCell id="CVNf-LmkE8wl2xfzt6kp-36" value="" style="edgeStyle=entityRelationEdgeStyle;fontSize=12;html=1;endArrow=ERone;endFill=1;rounded=0;labelBackgroundColor=default;strokeColor=default;align=center;verticalAlign=middle;fontFamily=Helvetica;fontColor=default;shape=connector;exitX=1;exitY=0.75;exitDx=0;exitDy=0;entryX=0;entryY=0.25;entryDx=0;entryDy=0;" edge="1" parent="1" source="CVNf-LmkE8wl2xfzt6kp-35" target="CVNf-LmkE8wl2xfzt6kp-1">
          <mxGeometry width="100" height="100" relative="1" as="geometry">
            <mxPoint x="230" y="318" as="sourcePoint" />
            <mxPoint x="360" y="313" as="targetPoint" />
          </mxGeometry>
        </mxCell>
        <mxCell id="CVNf-LmkE8wl2xfzt6kp-37" value="" style="edgeStyle=entityRelationEdgeStyle;fontSize=12;html=1;endArrow=ERone;endFill=1;rounded=0;labelBackgroundColor=default;strokeColor=default;align=center;verticalAlign=middle;fontFamily=Helvetica;fontColor=default;shape=connector;entryX=-0.012;entryY=0.162;entryDx=0;entryDy=0;entryPerimeter=0;exitX=0.993;exitY=0.66;exitDx=0;exitDy=0;exitPerimeter=0;" edge="1" parent="1" source="CVNf-LmkE8wl2xfzt6kp-35" target="CVNf-LmkE8wl2xfzt6kp-1">
          <mxGeometry width="100" height="100" relative="1" as="geometry">
            <mxPoint x="224" y="175" as="sourcePoint" />
            <mxPoint x="360" y="275" as="targetPoint" />
          </mxGeometry>
        </mxCell>
      </root>
    </mxGraphModel>
  </diagram>
</mxfile>
